{"title":"Certainty.2011 WEBRip XViD juggs","uid":8667150,"size":740087987,"categoryP":"video","categoryS":"movies","magnet":"?xt=urn:btih:25fcffa9bec4c5649b6d9943d94e9e03a5a83e02&amp;dn=Certainty.2011+WEBRip+XViD+juggs&amp;tr=udp%3A%2F%2Ftracker.openbittorrent.com%3A80&amp;tr=udp%3A%2F%2Fopen.demonii.com%3A1337&amp;tr=udp%3A%2F%2Ftracker.coppersurfer.tk%3A6969&amp;tr=udp%3A%2F%2Fexodus.desync.com%3A6969","seeders":0,"leechers":1,"uploader":"juggs99","files":3,"time":1373422064,"description":"Source : WEBiOS (Thanks)\n &lt;a href=&quot;\nhttp://www.imdb.com/title/tt1659341/&quot; rel=&quot;nofollow&quot; target=&quot;_NEW&quot;&gt;\nhttp://www.imdb.com/title/tt1659341/&lt;/a&gt;\n\nFormat                                   : AVI\nFormat/Info                              : Audio Video Interleave\nFile size                                : 697 MiB\nDuration                                 : 1h 43mn\nOverall bit rate                         : 945 Kbps\nWriting library                          : VirtualDub build 32842/release\n\nVideo\nID                                       : 0\nFormat                                   : MPEG-4 Visual\nFormat profile                           : Advanced Simple@L5\nFormat settings, BVOP                    : 2\nFormat settings, QPel                    : No\nFormat settings, GMC                     : No warppoints\nFormat settings, Matrix                  : Default (H.263)\nMuxing mode                              : Packed bitstream\nCodec ID                                 : XVID\nCodec ID/Hint                            : XviD\nDuration                                 : 1h 43mn\nBit rate                                 : 807 Kbps\nWidth                                    : 640 pixels\nHeight                                   : 352 pixels\nDisplay aspect ratio                     : 16:9\nFrame rate                               : 23.976 fps\nColor space                              : YUV\nChroma subsampling                       : 4:2:0\nBit depth                                : 8 bits\nScan type                                : Progressive\nCompression mode                         : Lossy\nBits/(Pixel*Frame)                       : 0.149\nStream size                              : 595 MiB (85%)\nWriting library                          : XviD 64\n\nAudio\nID                                       : 1\nFormat                                   : MPEG Audio\nFormat version                           : Version 1\nFormat profile                           : Layer 3\nMode                                     : Joint stereo\nMode extension                           : MS Stereo\nCodec ID                                 : 55\nCodec ID/Hint                            : MP3\nDuration                                 : 1h 43mn\nBit rate mode                            : Constant\nBit rate                                 : 128 Kbps\nChannel(s)                               : 2 channels\nSampling rate                            : 48.0 KHz\nCompression mode                         : Lossy\nStream size                              : 94.4 MiB (14%)\nAlignment                                : Split accross interleaves\nInterleave, duration                     : 42 ms (1.00 video frame)\nInterleave, preload duration             : 500 ms\nWriting library                          : LAME3.98\n &lt;a href=&quot;\nhttp://img593.imageshack.us/img593/3851/iaha.png&quot; rel=&quot;nofollow&quot; target=&quot;_NEW&quot;&gt;\nhttp://img593.imageshack.us/img593/3851/iaha.png&lt;/a&gt; &lt;a href=&quot;\nhttp://img28.imageshack.us/img28/411/94e.png&quot; rel=&quot;nofollow&quot; target=&quot;_NEW&quot;&gt;\nhttp://img28.imageshack.us/img28/411/94e.png&lt;/a&gt; &lt;a href=&quot;\nhttp://img33.imageshack.us/img33/1425/b23w.png&quot; rel=&quot;nofollow&quot; target=&quot;_NEW&quot;&gt;\nhttp://img33.imageshack.us/img33/1425/b23w.png&lt;/a&gt;","torrent":{"xt":"urn:btih:25fcffa9bec4c5649b6d9943d94e9e03a5a83e02","amp;dn":"Certainty.2011+WEBRip+XViD+juggs","amp;tr":["udp%3A%2F%2Ftracker.openbittorrent.com%3A80","udp%3A%2F%2Fopen.demonii.com%3A1337","udp%3A%2F%2Ftracker.coppersurfer.tk%3A6969","udp%3A%2F%2Fexodus.desync.com%3A6969"],"infoHash":"25fcffa9bec4c5649b6d9943d94e9e03a5a83e02","infoHashBuffer":{"type":"Buffer","data":[37,252,255,169,190,196,197,100,155,109,153,67,217,78,158,3,165,168,62,2]},"announce":[],"urlList":[]}}